# Blender v2.82 (sub 7) OBJ File: 'Satellite.blend'
# www.blender.org
mtllib Satellite.mtl
o Cylinder
v -0.500000 0.000000 -0.500000
v 0.322186 -0.000000 -0.500000
v -0.500000 -0.250000 -0.433013
v 0.322186 -0.250000 -0.433013
v -0.500000 -0.433013 -0.250000
v 0.322186 -0.433013 -0.250000
v -0.500000 0.433013 -0.250000
v 0.322186 0.433013 -0.250000
v -0.500000 0.250000 -0.433013
v 0.322186 0.250000 -0.433013
v -0.121399 -0.097330 -0.654805
v -0.121399 0.097330 -0.654805
v -0.055940 -0.097330 -0.654805
v -0.055940 0.097330 -0.654805
v -0.121399 0.317054 -0.677876
v -0.121399 -0.317055 -0.677876
v -0.055940 -0.317054 -0.677876
v -0.055940 0.317055 -0.677876
v -0.121399 0.317054 -1.834847
v -0.121399 -0.317055 -1.834847
v -0.055940 -0.317054 -1.834847
v -0.055940 0.317055 -1.834847
v -0.177335 0.522783 -0.062178
v -0.052980 0.522783 -0.062178
v -0.177335 0.522783 0.062178
v -0.052980 0.522783 0.062178
v -0.028232 0.522783 -0.086926
v -0.028232 0.412820 -0.086926
v -0.028232 0.522783 0.086926
v -0.028232 0.412820 0.086926
v -0.202083 0.522783 -0.086926
v -0.202083 0.412820 -0.086926
v -0.202083 0.522783 0.086926
v -0.202083 0.412820 0.086926
v -0.202083 0.522783 0.086926
v -0.202083 0.522783 -0.086926
v -0.028232 0.522783 -0.086926
v -0.028232 0.522783 0.086926
v -0.155304 0.548821 0.040147
v -0.155304 0.548821 -0.040147
v -0.075011 0.548821 -0.040147
v -0.075011 0.548821 0.040147
v -0.177335 0.548821 0.062178
v -0.177335 0.548821 -0.062178
v -0.052980 0.548821 -0.062178
v -0.052980 0.548821 0.062178
v -0.131041 0.567334 0.015884
v -0.131041 0.567334 -0.015884
v -0.099274 0.567334 -0.015884
v -0.099274 0.567334 0.015884
v -0.155304 0.567334 0.040147
v -0.155304 0.567334 -0.040147
v -0.075011 0.567334 -0.040147
v -0.075011 0.567334 0.040147
v -0.131041 0.959068 -0.015884
v -0.148957 0.959068 0.033800
v -0.148957 0.959068 -0.033800
v -0.500000 0.000000 0.500000
v 0.322186 -0.000000 0.500000
v -0.500000 -0.250000 0.433013
v 0.322186 -0.250000 0.433013
v -0.500000 -0.433013 0.250000
v 0.322186 -0.433013 0.250000
v -0.500000 -0.500000 0.000000
v 0.322186 -0.500000 0.000000
v -0.500000 0.500000 0.000000
v 0.322186 0.500000 0.000000
v -0.500000 0.433013 0.250000
v 0.322186 0.433013 0.250000
v -0.500000 0.250000 0.433013
v 0.322186 0.250000 0.433013
v -0.121399 -0.097330 0.000000
v -0.121399 0.097330 0.000000
v -0.121399 -0.097330 0.654805
v -0.121399 0.097330 0.654805
v -0.055940 -0.097330 0.000000
v -0.055940 0.097330 0.000000
v -0.055940 -0.097330 0.654805
v -0.055940 0.097330 0.654805
v -0.121399 0.317054 0.677876
v -0.121399 -0.317055 0.677876
v -0.055940 -0.317054 0.677876
v -0.055940 0.317055 0.677876
v -0.121399 0.317054 1.834847
v -0.121399 -0.317055 1.834847
v -0.055940 -0.317054 1.834847
v -0.055940 0.317055 1.834847
v 0.626059 0.057154 -0.287336
v 0.318344 0.039828 -0.200229
v 0.626059 0.112113 -0.270665
v 0.318344 0.078125 -0.188611
v 0.626059 0.162762 -0.243592
v 0.318344 0.113420 -0.169746
v 0.626059 0.207157 -0.207158
v 0.318344 0.144356 -0.144357
v 0.626059 0.243591 -0.162763
v 0.318344 0.169745 -0.113421
v 0.626059 0.270664 -0.112113
v 0.318344 0.188611 -0.078126
v 0.626059 0.287336 -0.057155
v 0.318344 0.200228 -0.039828
v 0.626059 0.292965 -0.000000
v 0.318344 0.204151 -0.000000
v 0.626059 0.287336 0.057154
v 0.318344 0.200229 0.039827
v 0.626059 0.270665 0.112112
v 0.318344 0.188611 0.078125
v 0.626059 0.243592 0.162762
v 0.318344 0.169746 0.113420
v 0.626059 0.207158 0.207157
v 0.318344 0.144357 0.144356
v 0.626059 0.162763 0.243591
v 0.318344 0.113420 0.169745
v 0.626059 0.112113 0.270664
v 0.318344 0.078125 0.188611
v 0.626059 0.057155 0.287336
v 0.318344 0.039828 0.200228
v 0.626059 0.000000 0.292965
v 0.318344 0.000000 0.204151
v 0.626059 -0.057155 0.287336
v 0.318344 -0.039828 0.200228
v 0.626059 -0.112113 0.270664
v 0.318344 -0.078125 0.188611
v 0.626059 -0.162763 0.243591
v 0.318344 -0.113420 0.169745
v 0.626059 -0.207158 0.207157
v 0.318344 -0.144357 0.144356
v 0.626059 -0.243592 0.162762
v 0.318344 -0.169745 0.113420
v -0.177335 0.522783 0.062178
v -0.052980 0.522783 0.062178
v -0.177335 0.522783 -0.062178
v -0.052980 0.522783 -0.062178
v -0.028232 0.522783 0.086926
v -0.028232 0.412820 0.086926
v -0.028232 0.522783 -0.086926
v -0.028232 0.412820 -0.086926
v -0.202083 0.522783 0.086926
v -0.202083 0.412820 0.086926
v -0.202083 0.522783 -0.086926
v -0.202083 0.412820 -0.086926
v -0.202083 0.522783 -0.086926
v -0.202083 0.522783 0.086926
v -0.028232 0.522783 0.086926
v -0.028232 0.522783 -0.086926
v -0.155304 0.548821 -0.040147
v -0.155304 0.548821 0.040147
v -0.075011 0.548821 0.040147
v -0.075011 0.548821 -0.040147
v -0.177335 0.548821 -0.062178
v -0.177335 0.548821 0.062178
v -0.052980 0.548821 0.062178
v -0.052980 0.548821 -0.062178
v -0.131041 0.567334 -0.015884
v -0.131041 0.567334 0.015884
v -0.099274 0.567334 0.015884
v -0.099274 0.567334 -0.015884
v -0.155304 0.567334 -0.040147
v -0.155304 0.567334 0.040147
v -0.075011 0.567334 0.040147
v -0.075011 0.567334 -0.040147
v -0.131041 0.959068 0.015884
v -0.099274 0.959068 0.015884
v -0.099274 0.959068 -0.015884
v -0.081358 0.959068 0.033800
v -0.081358 0.959068 -0.033800
v -0.148957 1.020424 -0.033800
v -0.148957 1.020424 0.033800
v -0.081358 1.020424 0.033800
v -0.081358 1.020424 -0.033800
v -0.055940 -0.284931 -0.902633
v -0.121399 -0.284931 -0.902633
v -0.055940 0.284931 -0.902633
v -0.121399 0.284931 -0.902633
v -0.055940 -0.284931 -0.866310
v -0.121399 -0.284931 -0.866310
v -0.055940 0.284931 -0.866310
v -0.121399 0.284931 -0.866310
v -0.121399 -0.284931 -1.156073
v -0.055940 -0.284931 -1.156073
v -0.121399 0.284931 -1.156073
v -0.055940 0.284931 -1.156073
v -0.121399 -0.284931 -1.119750
v -0.055940 -0.284931 -1.119750
v -0.121399 0.284931 -1.119750
v -0.055940 0.284931 -1.119750
v -0.121399 -0.284931 -1.430893
v -0.055940 -0.284931 -1.430893
v -0.055940 0.284931 -1.430893
v -0.121399 0.284931 -1.430893
v -0.121399 -0.284931 -1.394570
v -0.055940 -0.284931 -1.394570
v -0.055940 -0.284931 -1.411587
v -0.055940 0.284931 -1.394570
v -0.121399 0.284931 -1.394570
v -0.055940 -0.284931 -1.696346
v -0.121399 -0.284931 -1.696346
v -0.055940 0.284931 -1.696346
v -0.121399 0.284931 -1.696346
v -0.055940 -0.284931 -1.660023
v -0.121399 -0.284931 -1.660023
v -0.055940 0.284931 -1.660023
v -0.121399 0.284931 -1.660023
v -0.055940 -0.284931 0.840780
v -0.121399 -0.284931 0.840780
v -0.055940 0.284931 0.840780
v -0.121399 0.284931 0.840780
v -0.055940 -0.284931 0.877103
v -0.121399 -0.284931 0.877103
v -0.055940 0.284931 0.877103
v -0.121399 0.284931 0.877103
v -0.121399 -0.284931 1.106233
v -0.055940 -0.284931 1.106233
v -0.121399 0.284931 1.106233
v -0.055940 0.284931 1.106233
v -0.121399 -0.284931 1.142556
v -0.055940 -0.284931 1.142556
v -0.121399 0.284931 1.142556
v -0.055940 0.284931 1.142556
v -0.055940 -0.284931 1.381053
v -0.121399 -0.284931 1.381053
v -0.121399 0.284931 1.381053
v -0.055940 0.284931 1.381053
v -0.055940 -0.284931 1.417376
v -0.121399 -0.284931 1.417376
v -0.121399 0.284931 1.417376
v -0.055940 0.284931 1.417376
v -0.121399 -0.284931 1.634493
v -0.055940 -0.284931 1.634494
v -0.121399 0.284931 1.634493
v -0.055940 0.284931 1.634494
v -0.121399 -0.284931 1.670816
v -0.055940 -0.284931 1.670816
v -0.121399 0.284931 1.670816
v -0.055940 0.284931 1.670816
v 0.626059 -0.270664 0.112113
v 0.318344 -0.188611 0.078125
v 0.626059 -0.287336 0.057154
v 0.318344 -0.200228 0.039828
v 0.626059 -0.292965 -0.000000
v 0.318344 -0.204151 -0.000000
v 0.626059 -0.287336 -0.057155
v 0.318344 -0.200228 -0.039828
v 0.626059 -0.270664 -0.112113
v 0.318344 -0.188611 -0.078125
v 0.626059 -0.243592 -0.162763
v 0.318344 -0.169745 -0.113421
v 0.626059 -0.207158 -0.207158
v 0.318344 -0.144357 -0.144357
v 0.626059 -0.162763 -0.243592
v 0.318344 -0.113420 -0.169746
v 0.626059 -0.112113 -0.270665
v 0.318344 -0.078125 -0.188611
v 0.626059 -0.057155 -0.287336
v 0.318344 -0.039828 -0.200229
v 0.626059 0.000000 -0.292965
v 0.318344 0.000000 -0.204151
v 0.553296 0.063462 -0.319050
v 0.403350 0.053927 -0.271112
v 0.553296 0.124487 -0.300539
v 0.403350 0.105782 -0.255382
v 0.553296 0.180727 -0.270478
v 0.403350 0.153572 -0.229837
v 0.553296 0.230022 -0.230022
v 0.403350 0.195460 -0.195461
v 0.553296 0.270477 -0.180728
v 0.403350 0.229837 -0.153573
v 0.553296 0.300538 -0.124488
v 0.403350 0.255381 -0.105783
v 0.553296 0.319050 -0.063463
v 0.403350 0.271111 -0.053928
v 0.553296 0.325300 -0.000001
v 0.403350 0.276423 -0.000000
v 0.553296 0.319050 0.063462
v 0.403350 0.271111 0.053927
v 0.553296 0.300538 0.124487
v 0.403350 0.255381 0.105782
v 0.553296 0.270478 0.180727
v 0.403350 0.229837 0.153572
v 0.553296 0.230022 0.230022
v 0.403350 0.195461 0.195460
v 0.553296 0.180727 0.270477
v 0.403350 0.153572 0.229837
v 0.553296 0.124487 0.300538
v 0.403350 0.105783 0.255381
v 0.553296 0.063463 0.319049
v 0.403350 0.053928 0.271111
v 0.553296 0.000000 0.325300
v 0.403350 0.000000 0.276422
v 0.553296 -0.063463 0.319049
v 0.403350 -0.053927 0.271111
v 0.553296 -0.124487 0.300538
v 0.403350 -0.105782 0.255381
v 0.553296 -0.180727 0.270477
v 0.403350 -0.153572 0.229837
v 0.553296 -0.230022 0.230022
v 0.403350 -0.195460 0.195460
v 0.553296 -0.270477 0.180727
v 0.403350 -0.229837 0.153572
v 0.553296 -0.300538 0.124487
v 0.403350 -0.255381 0.105782
v 0.553296 -0.319050 0.063463
v 0.403350 -0.271111 0.053927
v 0.553296 -0.325300 -0.000000
v 0.403350 -0.276423 -0.000000
v 0.553296 -0.319050 -0.063463
v 0.403350 -0.271111 -0.053928
v 0.553296 -0.300538 -0.124487
v 0.403350 -0.255381 -0.105783
v 0.553296 -0.270477 -0.180727
v 0.403350 -0.229837 -0.153572
v 0.553296 -0.230022 -0.230022
v 0.403350 -0.195460 -0.195461
v 0.553296 -0.180727 -0.270477
v 0.403350 -0.153572 -0.229837
v 0.553296 -0.124487 -0.300538
v 0.403350 -0.105782 -0.255381
v 0.553296 -0.063463 -0.319050
v 0.403350 -0.053927 -0.271112
v 0.403350 0.000000 -0.276423
v 0.553296 0.000000 -0.325300
v 0.626059 0.000000 -0.321697
v 0.626059 0.062759 -0.315516
v 0.626059 0.123108 -0.297209
v 0.626059 0.178725 -0.267481
v 0.626059 0.227474 -0.227474
v 0.626059 0.267481 -0.178726
v 0.626059 0.297209 -0.123108
v 0.626059 0.315515 -0.062760
v 0.626059 0.321697 -0.000001
v 0.626059 0.315515 0.062759
v 0.626059 0.297209 0.123108
v 0.626059 0.267481 0.178725
v 0.626059 0.227474 0.227473
v 0.626059 0.178725 0.267481
v 0.626059 0.123108 0.297209
v 0.626059 0.062760 0.315515
v 0.626059 0.000000 0.321696
v 0.626059 -0.062760 0.315515
v 0.626059 -0.123108 0.297209
v 0.626059 -0.178725 0.267481
v 0.626059 -0.227474 0.227474
v 0.626059 -0.267481 0.178725
v 0.626059 -0.297209 0.123108
v 0.626059 -0.315515 0.062760
v 0.626059 -0.321696 -0.000000
v 0.626059 -0.315515 -0.062760
v 0.626059 -0.297209 -0.123108
v 0.626059 -0.267481 -0.178725
v 0.626059 -0.227474 -0.227474
v 0.626059 -0.178725 -0.267481
v 0.626059 -0.123108 -0.297209
v 0.626059 -0.062760 -0.315516
v 0.340561 -0.000000 -0.194363
v 0.340561 0.037918 -0.190629
v 0.340561 0.074379 -0.179568
v 0.340561 0.107982 -0.161607
v 0.340561 0.137435 -0.137436
v 0.340561 0.161607 -0.107983
v 0.340561 0.179568 -0.074380
v 0.340561 0.190628 -0.037919
v 0.340561 0.194363 -0.000000
v 0.340561 0.190628 0.037918
v 0.340561 0.179568 0.074379
v 0.340561 0.161607 0.107982
v 0.340561 0.137435 0.137435
v 0.340561 0.107982 0.161607
v 0.340561 0.074380 0.179568
v 0.340561 0.037918 0.190628
v 0.340561 0.000000 0.194363
v 0.340561 -0.037918 0.190628
v 0.340561 -0.074379 0.179568
v 0.340561 -0.107982 0.161607
v 0.340561 -0.137435 0.137435
v 0.340561 -0.161607 0.107982
v 0.340561 -0.179568 0.074379
v 0.340561 -0.190628 0.037918
v 0.340561 -0.194363 -0.000000
v 0.340561 -0.190628 -0.037919
v 0.340561 -0.179568 -0.074380
v 0.340561 -0.161607 -0.107982
v 0.340561 -0.137435 -0.137436
v 0.340561 -0.107982 -0.161607
v 0.340561 -0.074379 -0.179568
v 0.340561 -0.037918 -0.190629
v 0.497282 0.209067 0.209067
v 0.497282 0.245837 0.164263
v 0.497282 -0.273160 -0.113147
v 0.497282 -0.289985 -0.057682
v 0.497282 0.164263 0.245837
v 0.497282 -0.245837 -0.164263
v 0.497282 0.113147 0.273159
v 0.497282 0.057681 -0.289985
v 0.497282 0.000000 -0.295666
v 0.497282 -0.209067 -0.209067
v 0.497282 0.057682 0.289984
v 0.497282 0.113146 -0.273160
v 0.497282 -0.164263 -0.245837
v 0.497282 0.000000 0.295666
v 0.497282 0.164263 -0.245838
v 0.497282 -0.113146 -0.273160
v 0.497282 -0.057681 0.289984
v 0.497282 0.209067 -0.209068
v 0.497282 -0.057682 -0.289985
v 0.497282 -0.113146 0.273159
v 0.497282 0.245837 -0.164264
v 0.497282 -0.164263 0.245837
v 0.497282 0.273160 -0.113147
v 0.497282 -0.209067 0.209067
v 0.497282 0.289985 -0.057682
v 0.497282 -0.245837 0.164263
v 0.497282 0.295666 -0.000000
v 0.497282 -0.273160 0.113146
v 0.497282 0.289985 0.057681
v 0.497282 -0.289985 0.057681
v 0.497282 0.273160 0.113146
v 0.497282 -0.295666 -0.000000
vt 0.906877 0.923987
vt 0.906877 0.923987
vt 0.906877 0.923987
vt 0.906877 0.923987
vt 0.906877 0.923987
vt 0.906877 0.923987
vt 0.906877 0.923987
vt 0.906877 0.923987
vt 0.906877 0.923987
vt 0.906877 0.923987
vt 0.906877 0.923987
vt 0.906877 0.923987
vt 0.835453 0.923987
vt 0.835453 0.923987
vt 0.835453 0.923987
vt 0.835453 0.923987
vt 0.906877 0.923987
vt 0.906877 0.923987
vt 0.907746 0.958630
vt 0.907746 0.958630
vt 0.907746 0.958630
vt 0.907746 0.958630
vt 0.418977 0.181037
vt 0.418977 0.181037
vt 0.418977 0.181037
vt 0.418977 0.181037
vt 0.907746 0.958630
vt 0.907746 0.958630
vt 0.907746 0.958630
vt 0.907746 0.958630
vt 0.418977 0.181037
vt 0.418977 0.181037
vt 0.418977 0.181037
vt 0.418977 0.181037
vt 0.418977 0.181037
vt 0.418977 0.181037
vt 0.418977 0.181037
vt 0.418977 0.181037
vt 0.418977 0.181037
vt 0.418977 0.181037
vt 0.418977 0.181037
vt 0.418977 0.181037
vt 0.418977 0.181037
vt 0.418977 0.181037
vt 0.418977 0.181037
vt 0.418977 0.181037
vt 0.418977 0.181037
vt 0.418977 0.181037
vt 0.418977 0.181037
vt 0.418977 0.181037
vt 0.674545 0.946986
vt 0.674544 0.946986
vt 0.674544 0.946986
vt 0.674545 0.946986
vt 0.674544 0.946986
vt 0.674544 0.946986
vt 0.674544 0.946986
vt 0.674544 0.946986
vt 0.674544 0.946986
vt 0.674544 0.946986
vt 0.674544 0.946986
vt 0.674544 0.946986
vt 0.674544 0.946986
vt 0.674544 0.946986
vt 0.674544 0.946986
vt 0.674544 0.946986
vt 0.674544 0.946986
vt 0.674544 0.946986
vt 0.674544 0.946986
vt 0.674544 0.946986
vt 0.674544 0.946986
vt 0.674544 0.946986
vt 0.674544 0.946986
vt 0.674544 0.946986
vt 0.674544 0.946986
vt 0.674544 0.946986
vt 0.674544 0.946986
vt 0.674544 0.946986
vt 0.674544 0.946986
vt 0.674544 0.946986
vt 0.674544 0.946986
vt 0.674544 0.946986
vt 0.674544 0.946986
vt 0.674544 0.946986
vt 0.674544 0.946986
vt 0.674544 0.946986
vt 0.674544 0.946986
vt 0.674544 0.946986
vt 0.674544 0.946986
vt 0.674544 0.946986
vt 0.674544 0.946986
vt 0.674544 0.946986
vt 0.674544 0.946986
vt 0.674544 0.946986
vt 0.674544 0.946986
vt 0.674544 0.946986
vt 0.674544 0.946986
vt 0.674544 0.946986
vt 0.674544 0.946986
vt 0.674544 0.946986
vt 0.674544 0.946986
vt 0.674544 0.946986
vt 0.674544 0.946986
vt 0.674544 0.946986
vt 0.674544 0.946986
vt 0.674544 0.946986
vt 0.674544 0.946986
vt 0.674544 0.946986
vt 0.674544 0.946986
vt 0.674544 0.946986
vt 0.674544 0.946986
vt 0.674544 0.946986
vt 0.674544 0.946986
vt 0.674544 0.946986
vt 0.802484 0.942923
vt 0.802484 0.942923
vt 0.802484 0.942923
vt 0.802484 0.942923
vt 0.802484 0.942923
vt 0.802484 0.942923
vt 0.802484 0.942923
vt 0.802484 0.942923
vt 0.802484 0.942923
vt 0.802484 0.942923
vt 0.802484 0.942923
vt 0.802484 0.942923
vt 0.802484 0.942923
vt 0.802484 0.942923
vt 0.802484 0.942923
vt 0.802484 0.942923
vt 0.802484 0.942923
vt 0.802484 0.942923
vt 0.802484 0.942923
vt 0.802484 0.942923
vt 0.802484 0.942923
vt 0.802484 0.942923
vt 0.802484 0.942923
vt 0.802484 0.942923
vt 0.802484 0.942923
vt 0.802484 0.942923
vt 0.452971 0.957030
vt 0.452971 0.957030
vt 0.452971 0.957030
vt 0.452971 0.957030
vt 0.802484 0.942923
vt 0.802484 0.942923
vt 0.802484 0.942923
vt 0.802484 0.942923
vt 0.802484 0.942923
vt 0.802484 0.942923
vt 0.452971 0.957030
vt 0.452971 0.957030
vt 0.452971 0.957030
vt 0.452971 0.957030
vt 0.452971 0.957030
vt 0.452971 0.957030
vt 0.452971 0.957030
vt 0.452971 0.957030
vt 0.452971 0.957030
vt 0.452971 0.957030
vt 0.452971 0.957030
vt 0.452971 0.957030
vt 0.906877 0.923987
vt 0.906877 0.923987
vt 0.906877 0.923987
vt 0.906877 0.923987
vt 0.906877 0.923987
vt 0.906877 0.923987
vt 0.906877 0.923987
vt 0.906877 0.923987
vt 0.906877 0.923987
vt 0.906877 0.923987
vt 0.917642 0.955700
vt 0.917642 0.955700
vt 0.917642 0.955700
vt 0.917642 0.955700
vt 0.418977 0.181037
vt 0.418977 0.181037
vt 0.418977 0.181037
vt 0.418977 0.181037
vt 0.917642 0.955700
vt 0.917642 0.955700
vt 0.917642 0.955700
vt 0.917642 0.955700
vt 0.418977 0.181037
vt 0.418977 0.181037
vt 0.418977 0.181037
vt 0.418977 0.181037
vt 0.418977 0.181037
vt 0.418977 0.181037
vt 0.418977 0.181037
vt 0.418977 0.181037
vt 0.418977 0.181037
vt 0.418977 0.181037
vt 0.418977 0.181037
vt 0.418977 0.181037
vt 0.418977 0.181037
vt 0.418977 0.181037
vt 0.418977 0.181037
vt 0.418977 0.181037
vt 0.418977 0.181037
vt 0.418977 0.181037
vt 0.418977 0.181037
vt 0.418977 0.181037
vt 0.418977 0.181037
vt 0.418977 0.181037
vt 0.418977 0.181037
vt 0.418977 0.181037
vt 0.674544 0.946986
vt 0.674544 0.946986
vt 0.674544 0.946986
vt 0.674544 0.946986
vt 0.802484 0.942923
vt 0.802484 0.942923
vt 0.802484 0.942923
vt 0.802484 0.942923
vt 0.802484 0.942923
vt 0.802484 0.942923
vt 0.802484 0.942923
vt 0.802484 0.942923
vt 0.802484 0.942923
vt 0.802484 0.942923
vt 0.802484 0.942923
vt 0.802484 0.942923
vt 0.802484 0.942923
vt 0.802484 0.942923
vt 0.802484 0.942923
vt 0.802484 0.942923
vt 0.802484 0.942923
vt 0.802484 0.942923
vt 0.802484 0.942923
vt 0.802484 0.942923
vt 0.802484 0.942923
vt 0.802484 0.942923
vt 0.802484 0.942923
vt 0.802484 0.942923
vt 0.802484 0.942923
vt 0.802484 0.942923
vt 0.452971 0.957030
vt 0.452971 0.957030
vt 0.802484 0.942923
vt 0.802484 0.942923
vt 0.802484 0.942923
vt 0.802484 0.942923
vt 0.802484 0.942923
vt 0.802484 0.942923
vt 0.452971 0.957030
vt 0.452971 0.957030
vt 0.418977 0.181037
vt 0.418977 0.181037
vt 0.418977 0.181037
vt 0.418977 0.181037
vt 0.418977 0.181037
vt 0.418977 0.181037
vt 0.418977 0.181037
vt 0.418977 0.181037
vt 0.418977 0.181037
vt 0.418977 0.181037
vt 0.418977 0.181037
vt 0.418977 0.181037
vt 0.418977 0.181037
vt 0.418977 0.181037
vt 0.418977 0.181037
vt 0.418977 0.181037
vt 0.418977 0.181037
vt 0.418977 0.181037
vt 0.418977 0.181037
vt 0.418977 0.181037
vt 0.418977 0.181037
vt 0.418977 0.181037
vt 0.418977 0.181037
vt 0.418977 0.181037
vt 0.418977 0.181037
vt 0.418977 0.181037
vt 0.418977 0.181037
vt 0.418977 0.181037
vt 0.418977 0.181037
vt 0.418977 0.181037
vt 0.418977 0.181037
vt 0.418977 0.181037
vt 0.418977 0.181037
vt 0.418977 0.181037
vt 0.418977 0.181037
vt 0.418977 0.181037
vt 0.418977 0.181037
vt 0.418977 0.181037
vt 0.418977 0.181037
vt 0.418977 0.181037
vt 0.418977 0.181037
vt 0.674544 0.946986
vt 0.674544 0.946986
vt 0.674544 0.946986
vt 0.674544 0.946986
vt 0.674544 0.946986
vt 0.674544 0.946986
vt 0.674544 0.946986
vt 0.674544 0.946986
vt 0.674544 0.946986
vt 0.674544 0.946986
vt 0.674544 0.946986
vt 0.674544 0.946986
vt 0.674544 0.946986
vt 0.674544 0.946986
vt 0.674544 0.946986
vt 0.674544 0.946986
vt 0.674544 0.946985
vt 0.674544 0.946986
vt 0.674544 0.946986
vt 0.674544 0.946986
vt 0.674544 0.946986
vt 0.674544 0.946986
vt 0.674544 0.946986
vt 0.674544 0.946986
vt 0.674544 0.946986
vt 0.674544 0.946986
vt 0.674544 0.946986
vt 0.674544 0.946986
vt 0.674544 0.946986
vt 0.674544 0.946986
vt 0.674544 0.946986
vt 0.674544 0.946986
vt 0.674544 0.946986
vt 0.674544 0.946986
vt 0.674544 0.946986
vt 0.674544 0.946986
vt 0.674544 0.946986
vt 0.674544 0.946986
vt 0.674544 0.946986
vt 0.674544 0.946986
vt 0.674544 0.946986
vt 0.674544 0.946986
vt 0.674544 0.946986
vt 0.674544 0.946986
vt 0.674544 0.946986
vt 0.674544 0.946986
vt 0.674544 0.946986
vt 0.674544 0.946986
vt 0.674544 0.946986
vt 0.674544 0.946986
vt 0.674544 0.946986
vt 0.674544 0.946986
vt 0.674544 0.946986
vt 0.674544 0.946986
vt 0.674544 0.946986
vt 0.674544 0.946986
vt 0.674544 0.946986
vt 0.674544 0.946986
vt 0.674544 0.946986
vt 0.674544 0.946986
vt 0.674544 0.946986
vt 0.674544 0.946986
vt 0.674544 0.946986
vt 0.674544 0.946986
vt 0.674544 0.946985
vt 0.674544 0.946986
vt 0.674544 0.946985
vt 0.674544 0.946985
vt 0.674544 0.946986
vt 0.674544 0.946985
vt 0.674544 0.946985
vt 0.674544 0.946986
vt 0.674544 0.946986
vt 0.674544 0.946986
vt 0.674544 0.946986
vt 0.674545 0.946986
vt 0.674544 0.946986
vt 0.674544 0.946986
vt 0.674544 0.946986
vt 0.674545 0.946986
vt 0.674544 0.946986
vt 0.674544 0.946986
vt 0.674544 0.946985
vt 0.674544 0.946986
vt 0.674545 0.946986
vt 0.674544 0.946986
vt 0.674544 0.946986
vt 0.674544 0.946986
vt 0.674544 0.946986
vt 0.674544 0.946986
vt 0.674544 0.946986
vt 0.674544 0.946985
vt 0.674544 0.946986
vt 0.674544 0.946985
vt 0.674544 0.946986
vt 0.674544 0.946986
vt 0.674544 0.946986
vt 0.674544 0.946985
vt 0.674544 0.946985
vt 0.674544 0.946985
vt 0.674544 0.946986
vt 0.674544 0.946985
vt 0.674544 0.946985
vt 0.674544 0.946986
vt 0.674544 0.946986
vt 0.674544 0.946986
vt 0.674544 0.946986
vt 0.674544 0.946986
vt 0.674544 0.946986
vt 0.674545 0.946986
vt 0.674544 0.946986
vt 0.674544 0.946986
vt 0.674544 0.946985
vt 0.674544 0.946986
vt 0.674545 0.946986
vt 0.674544 0.946986
vt 0.674544 0.946986
vt 0.674544 0.946986
vt 0.674544 0.946986
vt 0.674544 0.946986
vt 0.674544 0.946986
vt 0.674544 0.946985
vt 0.674544 0.946986
vt 0.674544 0.946985
vt 0.674544 0.946986
vt 0.674544 0.946986
vt 0.674544 0.946986
vt 0.674544 0.946986
vt 0.674545 0.946986
vt 0.674544 0.946985
vt 0.674544 0.946986
vt 0.674544 0.946986
vt 0.674544 0.946985
vt 0.674544 0.946986
vt 0.674545 0.946986
vt 0.674544 0.946986
vt 0.674544 0.946985
vt 0.674544 0.946986
vt 0.674544 0.946985
vt 0.674544 0.946986
vt 0.674544 0.946985
vt 0.674544 0.946986
vt 0.674544 0.946986
vt 0.674544 0.946985
vt 0.674544 0.946985
vt 0.674544 0.946986
vt 0.674544 0.946985
vt 0.674545 0.946986
vt 0.674544 0.946986
vt 0.674544 0.946986
vt 0.674544 0.946986
vt 0.674544 0.946986
vt 0.674544 0.946986
vt 0.674545 0.946986
vt 0.674544 0.946986
vt 0.674544 0.946986
vn -0.0000 -0.2588 -0.9659
vn -0.0000 -0.7071 -0.7071
vn -0.0000 -0.9659 -0.2588
vn 0.0000 0.9659 -0.2588
vn 0.0000 0.7071 -0.7071
vn -0.0000 0.2588 -0.9659
vn 1.0000 -0.0000 -0.0000
vn -1.0000 0.0000 0.0000
vn -0.0000 0.1044 0.9945
vn 0.0000 -1.0000 0.0000
vn -0.0000 1.0000 0.0000
vn 0.0000 -0.1044 0.9945
vn 0.0000 0.0000 -1.0000
vn 0.5410 -0.6501 -0.5335
vn 0.0492 0.2899 -0.9558
vn -0.6459 0.3599 -0.6733
vn -0.6459 0.4843 -0.5901
vn -0.6459 0.5901 -0.4843
vn -0.6459 0.6733 -0.3599
vn -0.6459 0.7305 -0.2216
vn -0.6459 0.7597 -0.0748
vn -0.6459 0.7597 0.0748
vn -0.6459 0.7305 0.2216
vn -0.6459 0.6733 0.3599
vn -0.6459 0.5901 0.4843
vn -0.6459 0.4843 0.5901
vn -0.6459 0.3599 0.6733
vn -0.6459 0.2216 0.7305
vn -0.6459 0.0748 0.7597
vn -0.6459 -0.0748 0.7597
vn -0.6459 -0.2216 0.7305
vn -0.6459 -0.3599 0.6733
vn -0.6459 -0.4843 0.5901
vn -0.6459 -0.5901 0.4843
vn -0.6459 -0.6733 0.3599
vn -0.6459 -0.7305 0.2216
vn -0.6459 -0.7597 0.0748
vn -0.6459 -0.7597 -0.0748
vn 0.0000 0.0000 1.0000
vn -0.0000 -0.2588 0.9659
vn -0.0000 -0.7071 0.7071
vn -0.0000 -0.9659 0.2588
vn 0.0000 0.9659 0.2588
vn 0.0000 0.7071 0.7071
vn -0.0000 0.2588 0.9659
vn 0.0000 0.1044 -0.9945
vn 0.0000 -0.1044 -0.9945
vn -0.6459 -0.7305 -0.2216
vn -0.6459 -0.6733 -0.3599
vn -0.6459 -0.5901 -0.4843
vn -0.6459 -0.4843 -0.5901
vn -0.6459 -0.3599 -0.6733
vn -0.6459 -0.2216 -0.7305
vn -0.6459 -0.0748 -0.7597
vn 0.0492 -0.0979 -0.9940
vn 0.0492 -0.2899 -0.9558
vn 0.0492 -0.4708 -0.8809
vn 0.0492 -0.6336 -0.7721
vn 0.0492 -0.7721 -0.6336
vn 0.0492 -0.8809 -0.4708
vn 0.0492 -0.9558 -0.2899
vn 0.0492 -0.9940 -0.0979
vn 0.0492 -0.9940 0.0979
vn 0.0492 -0.9558 0.2899
vn 0.0492 -0.8809 0.4708
vn 0.0492 -0.7721 0.6336
vn 0.0492 -0.6336 0.7721
vn 0.0492 -0.4708 0.8809
vn 0.0492 -0.2899 0.9558
vn 0.0492 -0.0979 0.9940
vn 0.0492 0.0979 0.9940
vn 0.0492 0.2899 0.9558
vn 0.0492 0.4708 0.8809
vn 0.0492 0.6336 0.7721
vn 0.0492 0.7721 0.6336
vn 0.0492 0.8809 0.4708
vn 0.0492 0.9558 0.2899
vn 0.0492 0.9940 0.0979
vn 0.0492 0.9940 -0.0979
vn 0.0492 0.9558 -0.2899
vn 0.0492 0.8809 -0.4708
vn 0.0492 0.7721 -0.6336
vn 0.0492 0.6336 -0.7721
vn 0.0492 0.4708 -0.8809
vn 0.0492 0.0979 -0.9940
vn -0.6459 0.2216 -0.7305
vn -0.3086 -0.0932 -0.9466
vn -0.3086 -0.2761 -0.9102
vn -0.3086 -0.4484 -0.8389
vn -0.3086 -0.6034 -0.7353
vn -0.3086 -0.7353 -0.6034
vn -0.3086 -0.8389 -0.4484
vn -0.3086 -0.9102 -0.2761
vn -0.3086 -0.9466 -0.0932
vn -0.3086 -0.9466 0.0932
vn -0.3086 -0.9102 0.2761
vn -0.3086 -0.8389 0.4484
vn -0.3086 -0.7353 0.6034
vn -0.3086 -0.6034 0.7353
vn -0.3086 -0.4484 0.8389
vn -0.3086 -0.2761 0.9102
vn -0.3086 -0.0932 0.9466
vn -0.3086 0.0932 0.9466
vn -0.3086 0.2761 0.9102
vn -0.3086 0.4484 0.8389
vn -0.3086 0.6034 0.7353
vn -0.3086 0.7353 0.6034
vn -0.3086 0.8389 0.4484
vn -0.3086 0.9102 0.2761
vn -0.3086 0.9466 0.0932
vn -0.3086 0.9466 -0.0932
vn -0.3086 0.9102 -0.2761
vn -0.3086 0.8389 -0.4484
vn -0.3086 0.7353 -0.6034
vn -0.3086 0.6034 -0.7353
vn -0.3086 0.4484 -0.8389
vn -0.3086 0.2761 -0.9102
vn -0.3086 0.0932 -0.9466
vn -0.6459 0.0748 -0.7597
vn 0.5410 0.8048 0.2441
vn 0.5410 -0.5335 -0.6501
vn 0.5410 0.7417 0.3965
vn 0.5410 -0.3965 -0.7417
vn 0.5410 -0.0824 0.8370
vn 0.5410 0.6501 0.5335
vn 0.5410 -0.2441 -0.8048
vn 0.5410 -0.2441 0.8048
vn 0.5410 0.5335 0.6501
vn 0.5410 -0.0824 -0.8370
vn 0.5410 -0.3965 0.7417
vn 0.5410 0.3965 0.7417
vn 0.5410 0.0824 -0.8370
vn 0.5410 -0.5335 0.6501
vn 0.5410 0.2441 0.8048
vn 0.5410 0.2441 -0.8048
vn 0.5410 -0.6501 0.5335
vn 0.5410 0.0824 0.8370
vn 0.5410 0.3965 -0.7417
vn 0.5410 -0.7417 0.3965
vn 0.5410 0.5335 -0.6501
vn 0.5410 -0.8048 0.2441
vn 0.5410 0.6501 -0.5335
vn 0.5410 -0.8370 0.0824
vn 0.5410 0.7417 -0.3965
vn 0.5410 -0.8370 -0.0824
vn 0.5410 0.8048 -0.2441
vn 0.5410 -0.8048 -0.2441
vn 0.5410 0.8370 -0.0824
vn 0.5410 -0.7417 -0.3965
vn 0.5410 0.8370 0.0824
vn -0.0209 0.9950 0.0980
vn -0.0209 -0.8817 -0.4713
vn -0.0209 0.9950 -0.0980
vn -0.0209 -0.9567 -0.2902
vn -0.0209 0.9567 -0.2902
vn -0.0209 -0.9950 -0.0980
vn -0.0209 0.8817 -0.4713
vn -0.0209 -0.9950 0.0980
vn -0.0209 0.7728 -0.6343
vn -0.0209 -0.9567 0.2902
vn -0.0209 0.6343 -0.7728
vn -0.0209 -0.8817 0.4713
vn -0.0209 0.4713 -0.8817
vn -0.0209 0.0980 0.9950
vn -0.0209 -0.7728 0.6343
vn -0.0209 0.2902 -0.9567
vn -0.0209 0.2902 0.9567
vn -0.0209 -0.6343 0.7728
vn -0.0209 0.0980 -0.9950
vn -0.0209 0.4713 0.8817
vn -0.0209 -0.4713 0.8817
vn -0.0209 -0.0980 -0.9950
vn -0.0209 0.6343 0.7728
vn -0.0209 -0.2902 0.9567
vn -0.0209 -0.2902 -0.9567
vn -0.0209 0.7728 0.6343
vn -0.0209 -0.0980 0.9950
vn -0.0209 -0.4713 -0.8817
vn -0.0209 0.8817 0.4713
vn -0.0209 -0.6343 -0.7728
vn -0.0209 0.9567 0.2902
vn -0.0209 -0.7728 -0.6343
usemtl Material.001
s off
f 1/1/1 2/2/1 4/3/1 3/4/1
f 3/4/2 4/3/2 6/5/2 5/6/2
f 5/6/3 6/5/3 65/7/3 64/8/3
f 66/9/4 67/10/4 8/11/4 7/12/4
f 7/13/5 8/14/5 10/15/5 9/16/5
f 9/17/6 10/18/6 2/2/6 1/1/6
f 4/3/7 2/2/7 10/18/7 8/11/7 67/10/7 65/7/7 6/5/7
f 1/1/8 3/4/8 5/6/8 64/8/8 66/9/8 7/12/8 9/17/8
f 72/19/8 73/20/8 12/21/8 11/22/8
f 12/23/9 14/24/9 18/25/9 15/26/9
f 13/27/7 14/28/7 77/29/7 76/30/7
f 11/22/10 13/27/10 76/30/10 72/19/10
f 14/28/11 12/21/11 73/20/11 77/29/11
f 15/26/11 18/25/11 22/31/11 19/32/11
f 11/33/8 12/23/8 15/26/8 16/34/8
f 14/24/7 13/35/7 17/36/7 18/25/7
f 13/35/12 11/33/12 16/34/12 17/36/12
f 20/37/13 19/32/13 22/31/13 21/38/13
f 16/34/8 176/39/8 172/40/8 174/41/8 15/26/8 181/42/8 185/43/8 183/44/8
f 18/25/7 177/45/7 173/46/7 171/47/7 17/36/7 180/48/7 184/49/7 186/50/7
f 17/36/10 16/34/10 20/37/10 21/38/10
f 387/51/14 386/52/14 366/53/14 365/54/14
f 260/55/15 324/56/15 323/57/15 258/58/15
f 93/59/16 263/60/16 261/61/16 91/62/16
f 89/63/8 257/64/8 255/65/8 253/66/8 251/67/8 249/68/8 247/69/8 245/70/8 243/71/8 241/72/8 239/73/8 237/74/8 129/75/8 127/76/8 125/77/8 123/78/8 121/79/8 119/80/8 117/81/8 115/82/8 113/83/8 111/84/8 109/85/8 107/86/8 105/87/8 103/88/8 101/89/8 99/90/8 97/91/8 95/92/8 93/59/8 91/62/8
f 95/92/17 265/93/17 263/60/17 93/59/17
f 97/91/18 267/94/18 265/93/18 95/92/18
f 99/90/19 269/95/19 267/94/19 97/91/19
f 101/89/20 271/96/20 269/95/20 99/90/20
f 103/88/21 273/97/21 271/96/21 101/89/21
f 105/87/22 275/98/22 273/97/22 103/88/22
f 107/86/23 277/99/23 275/98/23 105/87/23
f 109/85/24 279/100/24 277/99/24 107/86/24
f 111/84/25 281/101/25 279/100/25 109/85/25
f 113/83/26 283/102/26 281/101/26 111/84/26
f 115/82/27 285/103/27 283/102/27 113/83/27
f 117/81/28 287/104/28 285/103/28 115/82/28
f 119/80/29 289/105/29 287/104/29 117/81/29
f 121/79/30 291/106/30 289/105/30 119/80/30
f 123/78/31 293/107/31 291/106/31 121/79/31
f 125/77/32 295/108/32 293/107/32 123/78/32
f 127/76/33 297/109/33 295/108/33 125/77/33
f 129/75/34 299/110/34 297/109/34 127/76/34
f 237/74/35 301/111/35 299/110/35 129/75/35
f 239/73/36 303/112/36 301/111/36 237/74/36
f 241/72/37 305/113/37 303/112/37 239/73/37
f 243/71/38 307/114/38 305/113/38 241/72/38
f 29/115/39 27/116/39 37/117/39 38/118/39
f 33/119/39 29/115/39 38/118/39 35/120/39
f 31/121/39 33/119/39 35/120/39 36/122/39
f 24/123/13 23/124/13 44/125/13 45/126/13
f 27/116/39 31/121/39 36/122/39 37/117/39
f 32/127/10 28/128/10 30/129/10 34/130/10
f 30/129/39 29/115/39 33/119/39 34/130/39
f 28/128/7 27/116/7 29/115/7 30/129/7
f 32/127/13 31/121/13 27/116/13 28/128/13
f 34/130/8 33/119/8 31/121/8 32/127/8
f 25/131/11 23/124/11 36/122/11 35/120/11
f 23/124/11 24/123/11 37/117/11 36/122/11
f 24/123/11 26/132/11 38/118/11 37/117/11
f 26/132/11 25/131/11 35/120/11 38/118/11
f 39/133/39 42/134/39 54/135/39 51/136/39
f 26/132/7 24/123/7 45/126/7 46/137/7
f 23/124/8 25/131/8 43/138/8 44/125/8
f 25/131/39 26/132/39 46/137/39 43/138/39
f 39/133/11 40/139/11 44/125/11 43/138/11
f 40/139/11 41/140/11 45/126/11 44/125/11
f 41/140/11 42/134/11 46/137/11 45/126/11
f 42/134/11 39/133/11 43/138/11 46/137/11
f 47/141/39 50/142/39 163/143/39 162/144/39
f 41/140/13 40/139/13 52/145/13 53/146/13
f 42/134/7 41/140/7 53/146/7 54/135/7
f 40/139/8 39/133/8 51/136/8 52/145/8
f 47/147/11 48/148/11 52/145/11 51/136/11
f 48/148/11 49/149/11 53/146/11 52/145/11
f 49/149/11 50/150/11 54/135/11 53/146/11
f 50/150/11 47/147/11 51/136/11 54/135/11
f 49/151/13 48/152/13 55/153/13 164/154/13
f 50/142/7 49/151/7 164/154/7 163/143/7
f 48/152/8 47/141/8 162/144/8 55/153/8
f 55/153/10 162/144/10 56/155/10 57/156/10
f 162/144/10 163/143/10 165/157/10 56/155/10
f 164/154/10 55/153/10 57/156/10 166/158/10
f 57/156/8 56/155/8 168/159/8 167/160/8
f 56/155/39 165/157/39 169/161/39 168/159/39
f 166/158/13 57/156/13 167/160/13 170/162/13
f 58/163/40 60/164/40 61/165/40 59/166/40
f 60/164/41 62/167/41 63/168/41 61/165/41
f 62/167/42 64/8/42 65/7/42 63/168/42
f 66/9/43 68/169/43 69/170/43 67/10/43
f 68/169/44 70/171/44 71/172/44 69/170/44
f 70/171/45 58/163/45 59/166/45 71/172/45
f 61/165/7 63/168/7 65/7/7 67/10/7 69/170/7 71/172/7 59/166/7
f 58/163/8 70/171/8 68/169/8 66/9/8 64/8/8 62/167/8 60/164/8
f 72/173/8 74/174/8 75/175/8 73/176/8
f 75/177/46 80/178/46 83/179/46 79/180/46
f 78/181/7 76/182/7 77/183/7 79/184/7
f 76/185/13 72/186/13 73/187/13 77/188/13
f 74/174/10 72/173/10 76/182/10 78/181/10
f 79/184/11 77/183/11 73/176/11 75/175/11
f 80/178/11 84/189/11 87/190/11 83/179/11
f 74/191/8 81/192/8 80/178/8 75/177/8
f 79/180/7 83/179/7 82/193/7 78/194/7
f 78/194/47 82/193/47 81/192/47 74/191/47
f 85/195/39 86/196/39 87/190/39 84/189/39
f 81/192/8 216/197/8 212/198/8 214/199/8 80/178/8 207/200/8 211/201/8 209/202/8
f 83/179/7 219/203/7 215/204/7 213/205/7 82/193/7 204/206/7 208/207/7 210/208/7
f 82/193/10 86/196/10 85/195/10 81/192/10
f 245/70/48 309/209/48 307/114/48 243/71/48
f 247/69/49 311/210/49 309/209/49 245/70/49
f 249/68/50 313/211/50 311/210/50 247/69/50
f 251/67/51 315/212/51 313/211/51 249/68/51
f 136/213/39 145/214/39 144/215/39 134/216/39
f 140/217/39 142/218/39 145/214/39 136/213/39
f 138/219/39 143/220/39 142/218/39 140/217/39
f 131/221/39 152/222/39 151/223/39 130/224/39
f 134/216/39 144/215/39 143/220/39 138/219/39
f 139/225/10 141/226/10 137/227/10 135/228/10
f 137/227/13 141/226/13 140/217/13 136/213/13
f 135/228/7 137/227/7 136/213/7 134/216/7
f 139/225/39 135/228/39 134/216/39 138/219/39
f 141/226/8 139/225/8 138/219/8 140/217/8
f 132/229/11 142/218/11 143/220/11 130/224/11
f 130/224/11 143/220/11 144/215/11 131/221/11
f 131/221/11 144/215/11 145/214/11 133/230/11
f 133/230/11 145/214/11 142/218/11 132/229/11
f 146/231/13 158/232/13 161/233/13 149/234/13
f 133/230/7 153/235/7 152/222/7 131/221/7
f 130/224/8 151/223/8 150/236/8 132/229/8
f 132/229/13 150/236/13 153/235/13 133/230/13
f 146/231/11 150/236/11 151/223/11 147/237/11
f 147/237/11 151/223/11 152/222/11 148/238/11
f 148/238/11 152/222/11 153/235/11 149/234/11
f 149/234/11 153/235/11 150/236/11 146/231/11
f 154/239/13 55/153/13 164/154/13 157/240/13
f 148/238/39 160/241/39 159/242/39 147/237/39
f 149/234/7 161/233/7 160/241/7 148/238/7
f 147/237/8 159/242/8 158/232/8 146/231/8
f 154/243/11 158/232/11 159/242/11 155/244/11
f 155/244/11 159/242/11 160/241/11 156/245/11
f 156/245/11 160/241/11 161/233/11 157/246/11
f 157/246/11 161/233/11 158/232/11 154/243/11
f 164/154/10 166/158/10 165/157/10 163/143/10
f 156/247/39 163/143/39 162/144/39 155/248/39
f 157/240/7 164/154/7 163/143/7 156/247/7
f 155/248/8 162/144/8 55/153/8 154/239/8
f 166/158/7 170/162/7 169/161/7 165/157/7
f 169/161/11 170/162/11 167/160/11 168/159/11
f 17/36/7 171/47/7 175/249/7 177/45/7 18/25/7
f 15/26/8 174/41/8 178/250/8 176/39/8 16/34/8
f 172/40/39 171/47/39 173/46/39 174/41/39
f 176/39/11 175/249/11 171/47/11 172/40/11
f 177/45/10 178/250/10 174/41/10 173/46/10
f 175/249/13 176/39/13 178/250/13 177/45/13
f 182/251/7 180/48/7 17/36/7 21/38/7 193/252/7 192/253/7 194/254/7 22/31/7 18/25/7 186/50/7
f 179/255/8 181/42/8 15/26/8 19/32/8 190/256/8 195/257/8 191/258/8 20/37/8 16/34/8 183/44/8
f 179/255/39 180/48/39 182/251/39 181/42/39
f 183/44/11 184/49/11 180/48/11 179/255/11
f 186/50/10 185/43/10 181/42/10 182/251/10
f 184/49/13 183/44/13 185/43/13 186/50/13
f 20/37/8 191/258/8 187/259/8 190/256/8 19/32/8 199/260/8 203/261/8 201/262/8
f 22/31/7 194/254/7 189/263/7 188/264/7 193/252/7 21/38/7 196/265/7 200/266/7 202/267/7
f 187/259/39 188/264/39 189/263/39 190/256/39
f 191/258/11 192/253/11 193/252/11 188/264/11 187/259/11
f 194/254/10 195/257/10 190/256/10 189/263/10
f 192/253/13 191/258/13 195/257/13 194/254/13
f 197/268/39 196/265/39 198/269/39 199/260/39
f 198/269/7 196/265/7 21/38/7 22/31/7 202/267/7
f 197/268/8 199/260/8 19/32/8 20/37/8 201/262/8
f 201/262/11 200/266/11 196/265/11 197/268/11
f 202/267/10 203/261/10 199/260/10 198/269/10
f 200/266/13 201/262/13 203/261/13 202/267/13
f 205/270/8 207/200/8 80/178/8 81/192/8 209/202/8
f 205/270/39 204/206/39 206/271/39 207/200/39
f 206/271/7 204/206/7 82/193/7 83/179/7 210/208/7
f 209/202/11 208/207/11 204/206/11 205/270/11
f 210/208/10 211/201/10 207/200/10 206/271/10
f 208/207/13 209/202/13 211/201/13 210/208/13
f 80/178/8 214/199/8 218/272/8 216/197/8 81/192/8 85/195/8 225/273/8 221/274/8 222/275/8 84/189/8
f 212/198/39 213/205/39 215/204/39 214/199/39
f 82/193/7 213/205/7 217/276/7 219/203/7 83/179/7 87/190/7 227/277/7 223/278/7 220/279/7 86/196/7
f 216/197/11 217/276/11 213/205/11 212/198/11
f 219/203/10 218/272/10 214/199/10 215/204/10
f 217/276/13 216/197/13 218/272/13 219/203/13
f 84/189/8 222/275/8 226/280/8 225/273/8 85/195/8 228/281/8 230/282/8
f 221/274/39 220/279/39 223/278/39 222/275/39
f 86/196/7 220/279/7 224/283/7 227/277/7 87/190/7 235/284/7 231/285/7 229/286/7
f 225/273/11 224/283/11 220/279/11 221/274/11
f 227/277/10 226/280/10 222/275/10 223/278/10
f 224/283/13 225/273/13 226/280/13 227/277/13
f 228/281/39 229/286/39 231/285/39 230/282/39
f 229/286/7 233/287/7 235/284/7 87/190/7 86/196/7
f 230/282/8 234/288/8 232/289/8 228/281/8 85/195/8 84/189/8
f 232/289/11 233/287/11 229/286/11 228/281/11
f 235/284/10 234/288/10 230/282/10 231/285/10
f 233/287/13 232/289/13 234/288/13 235/284/13
f 253/66/52 317/290/52 315/212/52 251/67/52
f 255/65/53 319/291/53 317/290/53 253/66/53
f 257/64/54 320/292/54 319/291/54 255/65/54
f 321/293/55 322/294/55 353/295/55 318/296/55
f 318/296/56 353/295/56 352/297/56 316/298/56
f 316/298/57 352/297/57 351/299/57 314/300/57
f 314/300/58 351/299/58 350/301/58 312/302/58
f 312/302/59 350/301/59 349/303/59 310/304/59
f 310/304/60 349/303/60 348/305/60 308/306/60
f 308/306/61 348/305/61 347/307/61 306/308/61
f 306/308/62 347/307/62 346/309/62 304/310/62
f 304/310/63 346/309/63 345/311/63 302/312/63
f 302/312/64 345/311/64 344/313/64 300/314/64
f 300/314/65 344/313/65 343/315/65 298/316/65
f 298/316/66 343/315/66 342/317/66 296/318/66
f 296/318/67 342/317/67 341/319/67 294/320/67
f 294/320/68 341/319/68 340/321/68 292/322/68
f 292/322/69 340/321/69 339/323/69 290/324/69
f 290/324/70 339/323/70 338/325/70 288/326/70
f 288/326/71 338/325/71 337/327/71 286/328/71
f 286/328/72 337/327/72 336/329/72 284/330/72
f 284/330/73 336/329/73 335/331/73 282/332/73
f 282/332/74 335/331/74 334/333/74 280/334/74
f 280/334/75 334/333/75 333/335/75 278/336/75
f 278/336/76 333/335/76 332/337/76 276/338/76
f 276/338/77 332/337/77 331/339/77 274/340/77
f 274/340/78 331/339/78 330/341/78 272/342/78
f 272/342/79 330/341/79 329/343/79 270/344/79
f 270/344/80 329/343/80 328/345/80 268/346/80
f 268/346/81 328/345/81 327/347/81 266/348/81
f 266/348/82 327/347/82 326/349/82 264/350/82
f 264/350/83 326/349/83 325/351/83 262/352/83
f 262/352/84 325/351/84 324/56/84 260/55/84
f 258/58/85 323/57/85 322/294/85 321/293/85
f 91/62/86 261/61/86 259/353/86 89/63/86
f 321/293/87 318/296/87 319/291/87 320/292/87
f 318/296/88 316/298/88 317/290/88 319/291/88
f 316/298/89 314/300/89 315/212/89 317/290/89
f 314/300/90 312/302/90 313/211/90 315/212/90
f 312/302/91 310/304/91 311/210/91 313/211/91
f 310/304/92 308/306/92 309/209/92 311/210/92
f 308/306/93 306/308/93 307/114/93 309/209/93
f 306/308/94 304/310/94 305/113/94 307/114/94
f 304/310/95 302/312/95 303/112/95 305/113/95
f 302/312/96 300/314/96 301/111/96 303/112/96
f 300/314/97 298/316/97 299/110/97 301/111/97
f 298/316/98 296/318/98 297/109/98 299/110/98
f 296/318/99 294/320/99 295/108/99 297/109/99
f 294/320/100 292/322/100 293/107/100 295/108/100
f 292/322/101 290/324/101 291/106/101 293/107/101
f 290/324/102 288/326/102 289/105/102 291/106/102
f 288/326/103 286/328/103 287/104/103 289/105/103
f 286/328/104 284/330/104 285/103/104 287/104/104
f 284/330/105 282/332/105 283/102/105 285/103/105
f 282/332/106 280/334/106 281/101/106 283/102/106
f 280/334/107 278/336/107 279/100/107 281/101/107
f 278/336/108 276/338/108 277/99/108 279/100/108
f 276/338/109 274/340/109 275/98/109 277/99/109
f 274/340/110 272/342/110 273/97/110 275/98/110
f 272/342/111 270/344/111 271/96/111 273/97/111
f 270/344/112 268/346/112 269/95/112 271/96/112
f 268/346/113 266/348/113 267/94/113 269/95/113
f 266/348/114 264/350/114 265/93/114 267/94/114
f 264/350/115 262/352/115 263/60/115 265/93/115
f 262/352/116 260/55/116 261/61/116 263/60/116
f 260/55/117 258/58/117 259/353/117 261/61/117
f 258/58/118 321/293/118 320/292/118 259/353/118
f 89/63/119 259/353/119 320/292/119 257/64/119
f 88/354/7 256/355/7 322/294/7 323/57/7
f 90/356/7 88/354/7 323/57/7 324/56/7
f 92/357/7 90/356/7 324/56/7 325/351/7
f 94/358/7 92/357/7 325/351/7 326/349/7
f 96/359/7 94/358/7 326/349/7 327/347/7
f 98/360/7 96/359/7 327/347/7 328/345/7
f 100/361/7 98/360/7 328/345/7 329/343/7
f 102/362/7 100/361/7 329/343/7 330/341/7
f 104/363/7 102/362/7 330/341/7 331/339/7
f 106/364/7 104/363/7 331/339/7 332/337/7
f 108/365/7 106/364/7 332/337/7 333/335/7
f 110/366/7 108/365/7 333/335/7 334/333/7
f 112/367/7 110/366/7 334/333/7 335/331/7
f 114/368/7 112/367/7 335/331/7 336/329/7
f 116/369/7 114/368/7 336/329/7 337/327/7
f 118/370/7 116/369/7 337/327/7 338/325/7
f 120/371/7 118/370/7 338/325/7 339/323/7
f 122/372/7 120/371/7 339/323/7 340/321/7
f 124/373/7 122/372/7 340/321/7 341/319/7
f 126/374/7 124/373/7 341/319/7 342/317/7
f 128/375/7 126/374/7 342/317/7 343/315/7
f 236/376/7 128/375/7 343/315/7 344/313/7
f 238/377/7 236/376/7 344/313/7 345/311/7
f 240/378/7 238/377/7 345/311/7 346/309/7
f 242/379/7 240/378/7 346/309/7 347/307/7
f 244/380/7 242/379/7 347/307/7 348/305/7
f 246/381/7 244/380/7 348/305/7 349/303/7
f 248/382/7 246/381/7 349/303/7 350/301/7
f 250/383/7 248/382/7 350/301/7 351/299/7
f 252/384/7 250/383/7 351/299/7 352/297/7
f 254/385/7 252/384/7 352/297/7 353/295/7
f 256/355/7 254/385/7 353/295/7 322/294/7
f 354/386/7 355/387/7 356/388/7 357/389/7 358/390/7 359/391/7 360/392/7 361/393/7 362/394/7 363/395/7 364/396/7 365/54/7 366/53/7 367/397/7 368/398/7 369/399/7 370/400/7 371/401/7 372/402/7 373/403/7 374/404/7 375/405/7 376/406/7 377/407/7 378/408/7 379/409/7 380/410/7 381/411/7 382/412/7 383/413/7 384/414/7 385/415/7
f 389/416/120 388/417/120 380/410/120 379/409/120
f 386/52/121 390/418/121 367/397/121 366/53/121
f 388/417/122 391/419/122 381/411/122 380/410/122
f 390/418/123 392/420/123 368/398/123 367/397/123
f 394/421/124 393/422/124 355/387/124 354/386/124
f 391/419/125 395/423/125 382/412/125 381/411/125
f 392/420/126 396/424/126 369/399/126 368/398/126
f 393/422/127 397/425/127 356/388/127 355/387/127
f 395/423/128 398/426/128 383/413/128 382/412/128
f 396/424/129 399/427/129 370/400/129 369/399/129
f 397/425/130 400/428/130 357/389/130 356/388/130
f 398/426/131 401/429/131 384/414/131 383/413/131
f 399/427/132 402/430/132 371/401/132 370/400/132
f 400/428/133 403/431/133 358/390/133 357/389/133
f 401/429/134 404/432/134 385/415/134 384/414/134
f 402/430/135 405/433/135 372/402/135 371/401/135
f 403/431/136 406/434/136 359/391/136 358/390/136
f 404/432/137 394/421/137 354/386/137 385/415/137
f 405/433/138 407/435/138 373/403/138 372/402/138
f 406/434/139 408/436/139 360/392/139 359/391/139
f 407/435/140 409/437/140 374/404/140 373/403/140
f 408/436/141 410/438/141 361/393/141 360/392/141
f 409/437/142 411/439/142 375/405/142 374/404/142
f 410/438/143 412/440/143 362/394/143 361/393/143
f 411/439/144 413/441/144 376/406/144 375/405/144
f 412/440/145 414/442/145 363/395/145 362/394/145
f 413/441/146 415/443/146 377/407/146 376/406/146
f 414/442/147 416/444/147 364/396/147 363/395/147
f 415/443/148 417/445/148 378/408/148 377/407/148
f 416/444/149 387/51/149 365/54/149 364/396/149
f 417/445/150 389/416/150 379/409/150 378/408/150
f 240/378/151 242/379/151 389/416/151 417/445/151
f 106/364/152 108/365/152 387/51/152 416/444/152
f 238/377/153 240/378/153 417/445/153 415/443/153
f 104/363/154 106/364/154 416/444/154 414/442/154
f 236/376/155 238/377/155 415/443/155 413/441/155
f 102/362/156 104/363/156 414/442/156 412/440/156
f 128/375/157 236/376/157 413/441/157 411/439/157
f 100/361/158 102/362/158 412/440/158 410/438/158
f 126/374/159 128/375/159 411/439/159 409/437/159
f 98/360/160 100/361/160 410/438/160 408/436/160
f 124/373/161 126/374/161 409/437/161 407/435/161
f 96/359/162 98/360/162 408/436/162 406/434/162
f 122/372/163 124/373/163 407/435/163 405/433/163
f 254/385/164 256/355/164 394/421/164 404/432/164
f 94/358/165 96/359/165 406/434/165 403/431/165
f 120/371/166 122/372/166 405/433/166 402/430/166
f 252/384/167 254/385/167 404/432/167 401/429/167
f 92/357/168 94/358/168 403/431/168 400/428/168
f 118/370/169 120/371/169 402/430/169 399/427/169
f 250/383/170 252/384/170 401/429/170 398/426/170
f 90/356/171 92/357/171 400/428/171 397/425/171
f 116/369/172 118/370/172 399/427/172 396/424/172
f 248/382/173 250/383/173 398/426/173 395/423/173
f 88/354/174 90/356/174 397/425/174 393/422/174
f 114/368/175 116/369/175 396/424/175 392/420/175
f 246/381/176 248/382/176 395/423/176 391/419/176
f 256/355/177 88/354/177 393/422/177 394/421/177
f 112/367/178 114/368/178 392/420/178 390/418/178
f 244/380/179 246/381/179 391/419/179 388/417/179
f 110/366/180 112/367/180 390/418/180 386/52/180
f 242/379/181 244/380/181 388/417/181 389/416/181
f 108/365/182 110/366/182 386/52/182 387/51/182
